<svg width="228" height="157" viewBox="0 0 228 157" fill="none" xmlns="http://www.w3.org/2000/svg">
<path d="M227.994 78.5C227.986 92.9264 224.011 107.072 216.505 119.387C208.999 131.703 198.251 141.712 185.439 148.318C184.689 148.712 183.927 149.087 183.159 149.45C182.814 149.62 182.475 149.777 182.125 149.935C179.935 150.94 177.689 151.842 175.387 152.641C173.573 153.277 171.71 153.852 169.829 154.348C152.063 159.084 133.202 157.441 116.52 149.705C115.837 149.384 115.153 149.057 114.482 148.718C101.993 142.464 91.3978 132.986 83.7923 121.262C76.1869 109.538 71.8466 95.9937 71.2199 82.0289C70.5932 68.064 73.7028 54.185 80.2275 41.8257C86.7522 29.4664 96.4553 19.0752 108.334 11.7257C120.213 4.3762 133.837 0.335014 147.798 0.0196766C161.759 -0.295661 175.552 3.12629 187.75 9.93196C199.948 16.7376 210.109 26.6802 217.184 38.7323C224.259 50.7844 227.991 64.509 227.994 78.4879V78.5Z" fill="url(#paint0_linear)"/>
<path d="M118.825 126.959L110.164 113.415C110.164 113.415 134.157 85.6501 136.558 84.0094C136.558 84.0094 124.455 104.334 118.825 126.959Z" fill="url(#paint1_linear)"/>
<path d="M110.164 113.415L93.8336 127.945L63.7924 113.415L40.8094 114.674C40.8094 114.674 55.1254 119.518 59.1534 119.318L63.1876 119.118C63.1876 119.118 87.858 142.93 93.5312 144.746C99.2044 146.562 117.839 132.323 117.839 132.323L118.921 127.001L110.164 113.415Z" fill="url(#paint2_linear)"/>
<path d="M155.222 80.7219C152.953 81.8218 150.513 82.5261 148.007 82.8046C145.11 83.2405 140.707 81.6301 140.707 81.6301C144.033 79.0086 143.259 72.8271 143.259 72.8271L143.332 72.7908C146.882 72.5184 149.852 70.5023 151.926 68.5528C151.176 73.8443 155.222 80.7219 155.222 80.7219Z" fill="url(#paint3_linear)"/>
<path d="M155.222 61.0334V64.666C154.277 66.0772 153.173 67.3752 151.932 68.5347C149.858 70.4902 146.888 72.5063 143.338 72.7727C141.725 72.896 140.105 72.6582 138.596 72.0764C128.919 68.4438 135.723 49.2214 135.723 49.2214C138.796 41.3993 152.706 45.1832 152.706 45.1832C154.569 47.4052 154.926 53.6108 154.854 54.2162C154.543 55.0668 154.138 55.8793 153.644 56.638C153.644 56.638 156.287 54.1436 157.194 55.8025C158.101 57.4613 155.222 61.0334 155.222 61.0334Z" fill="url(#paint4_linear)"/>
<path d="M155.222 64.678V61.0455C155.222 61.0455 158.095 57.5037 157.188 55.8327C156.281 54.1617 153.638 56.6682 153.638 56.6682C154.132 55.9095 154.537 55.0971 154.847 54.2465C154.92 53.6411 154.618 47.7866 152.7 45.2135C152.7 45.2135 138.79 41.4296 135.717 49.2517C135.717 49.2517 131.737 48.2406 128.308 43.5001C122.701 35.7446 129.397 34.794 136.032 36.2895C144.082 38.1057 152.15 32.1483 161.373 38.2026C170.597 44.2569 162.329 58.0183 155.222 64.678Z" fill="#262F72"/>
<g filter="url(#filter0_d)">
<path d="M91.9103 30.8769H13.4354C11.5381 30.8769 10 32.4165 10 34.3157V106.749C10 108.649 11.5381 110.188 13.4354 110.188H91.9103C93.8076 110.188 95.3456 108.649 95.3456 106.749V34.3157C95.3456 32.4165 93.8076 30.8769 91.9103 30.8769Z" fill="white"/>
</g>
<path d="M23.0701 45.2498C22.8522 45.4966 22.5724 45.6805 22.2596 45.7826C21.8864 45.9122 21.4934 45.9758 21.0984 45.9703C20.6884 45.9797 20.2834 45.8793 19.925 45.6797C19.5856 45.4823 19.3136 45.1869 19.1448 44.8321C18.9526 44.4233 18.8554 43.9762 18.8606 43.5244V43.1732C18.8496 42.7136 18.9383 42.2571 19.1206 41.8352C19.2774 41.4773 19.5389 41.1754 19.8706 40.9694C20.272 40.7519 20.7257 40.6497 21.1815 40.6743C21.6373 40.6989 22.0774 40.8492 22.4532 41.1087C22.8139 41.4389 23.0311 41.8975 23.058 42.3861H22.0238C22.0003 42.1393 21.8886 41.9093 21.7093 41.7383C21.5191 41.5925 21.2831 41.5195 21.0439 41.5325C20.8827 41.5235 20.7219 41.556 20.5768 41.627C20.4317 41.6981 20.3072 41.8052 20.2153 41.9381C20.0031 42.3047 19.9042 42.7261 19.9311 43.149V43.4759C19.9049 43.9019 20.0128 44.3254 20.2396 44.6868C20.3442 44.8249 20.4811 44.9352 20.6382 45.008C20.7953 45.0809 20.9678 45.114 21.1407 45.1045C21.4469 45.1313 21.7518 45.0404 21.9935 44.8502V43.9603H21.0258V43.1793H23.058L23.0701 45.2498Z" fill="#64B5F6"/>
<path d="M85.2573 40.6667H29.6505C28.9724 40.6667 28.4227 41.2169 28.4227 41.8957V46.3638C28.4227 47.0426 28.9724 47.5928 29.6505 47.5928H85.2573C85.9354 47.5928 86.4851 47.0426 86.4851 46.3638V41.8957C86.4851 41.2169 85.9354 40.6667 85.2573 40.6667Z" fill="#E7EEF2"/>
<path d="M86.4851 51.5039H28.4227V52.7148H86.4851V51.5039Z" fill="#BBDEFB"/>
<path d="M86.4851 54.2283H28.4227V55.4392H86.4851V54.2283Z" fill="#E7E8E9"/>
<path d="M86.4851 56.9528H28.4227V58.1636H86.4851V56.9528Z" fill="#E7E8E9"/>
<path d="M86.4851 59.6772H28.4227V60.888H86.4851V59.6772Z" fill="#E7E8E9"/>
<path d="M86.4851 64.7749H28.4227V65.9858H86.4851V64.7749Z" fill="#BBDEFB"/>
<path d="M86.4851 67.4993H28.4227V68.7102H86.4851V67.4993Z" fill="#E7E8E9"/>
<path d="M86.4851 70.2238H28.4227V71.4346H86.4851V70.2238Z" fill="#E7E8E9"/>
<path d="M86.4851 72.9482H28.4227V74.1591H86.4851V72.9482Z" fill="#E7E8E9"/>
<path d="M86.4851 77.8945H28.4227V79.1054H86.4851V77.8945Z" fill="#BBDEFB"/>
<path d="M86.4851 80.619H28.4227V81.8299H86.4851V80.619Z" fill="#E7E8E9"/>
<path d="M86.4851 83.3434H28.4227V84.5542H86.4851V83.3434Z" fill="#E7E8E9"/>
<path d="M86.4851 86.0679H28.4227V87.2787H86.4851V86.0679Z" fill="#E7E8E9"/>
<path d="M86.4851 91.0143H28.4227V92.2251H86.4851V91.0143Z" fill="#BBDEFB"/>
<path d="M86.4851 93.7386H28.4227V94.9495H86.4851V93.7386Z" fill="#E7E8E9"/>
<path d="M86.4851 96.463H28.4227V97.6739H86.4851V96.463Z" fill="#E7E8E9"/>
<path d="M86.4851 99.1875H28.4227V100.398H86.4851V99.1875Z" fill="#E7E8E9"/>
<path d="M176.143 109.97C180.28 122.297 183.346 136.567 185.439 148.318C184.689 148.712 183.927 149.087 183.159 149.45C182.814 149.62 182.476 149.777 182.125 149.935C179.935 150.94 177.689 151.842 175.387 152.641C173.573 153.277 171.71 153.852 169.829 154.348C152.063 159.084 133.202 157.441 116.52 149.705C115.837 149.384 115.153 149.057 114.482 148.718C115.692 142.5 117.131 135.192 118.819 126.965C119.431 123.982 120.075 120.878 120.748 117.653C124.214 101.131 129.185 92.1343 133.292 87.2606L133.334 87.2122C134.114 86.2856 134.959 85.4156 135.862 84.6088C135.888 84.5795 135.916 84.5531 135.947 84.5301C136.153 84.3485 136.358 84.179 136.552 84.0155C139.025 81.9994 140.707 81.6301 140.707 81.6301L140.858 81.6846H140.943C142.256 82.2032 143.633 82.5433 145.037 82.6956H145.273H145.31C146.206 82.7816 147.108 82.7957 148.007 82.738H148.061C150.558 82.5788 152.989 81.8763 155.186 80.6796C157.762 81.5325 160.189 82.7849 162.377 84.3909C168.631 88.9861 181.23 105.835 181.23 105.835L176.143 109.97Z" fill="url(#paint5_linear)"/>
<path d="M199.181 132.977C199.144 134.66 197.614 138.074 195.376 142.215C192.219 144.496 188.895 146.536 185.433 148.318C184.683 148.712 183.921 149.087 183.153 149.45C182.808 149.62 182.469 149.777 182.119 149.935C179.929 150.94 177.683 151.842 175.381 152.641L181.223 134L166.103 118.107L176.137 109.97L181.223 105.847C181.223 105.847 199.338 126.468 199.181 132.977Z" fill="url(#paint6_linear)"/>
<defs>
<filter id="filter0_d" x="0" y="24.8769" width="105.346" height="99.3113" filterUnits="userSpaceOnUse" color-interpolation-filters="sRGB">
<feFlood flood-opacity="0" result="BackgroundImageFix"/>
<feColorMatrix in="SourceAlpha" type="matrix" values="0 0 0 0 0 0 0 0 0 0 0 0 0 0 0 0 0 0 127 0"/>
<feOffset dy="4"/>
<feGaussianBlur stdDeviation="5"/>
<feColorMatrix type="matrix" values="0 0 0 0 0 0 0 0 0 0 0 0 0 0 0 0 0 0 0.15 0"/>
<feBlend mode="normal" in2="BackgroundImageFix" result="effect1_dropShadow"/>
<feBlend mode="normal" in="SourceGraphic" in2="effect1_dropShadow" result="shape"/>
</filter>
<linearGradient id="paint0_linear" x1="149.889" y1="8.52487" x2="147.201" y2="163.26" gradientUnits="userSpaceOnUse">
<stop stop-color="white" stop-opacity="0"/>
<stop offset="1" stop-color="#64B5F6" stop-opacity="0.6"/>
</linearGradient>
<linearGradient id="paint1_linear" x1="125.266" y1="81.1276" x2="120.721" y2="123.053" gradientUnits="userSpaceOnUse">
<stop stop-color="#42A5F5"/>
<stop offset="1" stop-color="#1565C0"/>
</linearGradient>
<linearGradient id="paint2_linear" x1="72.9251" y1="125.269" x2="123.127" y2="131.916" gradientUnits="userSpaceOnUse">
<stop stop-color="#FFE082"/>
<stop offset="1" stop-color="#FFA726"/>
</linearGradient>
<linearGradient id="paint3_linear" x1="11278.7" y1="3026.44" x2="11282.2" y2="2754.23" gradientUnits="userSpaceOnUse">
<stop stop-color="#FFE082"/>
<stop offset="1" stop-color="#FFA726"/>
</linearGradient>
<linearGradient id="paint4_linear" x1="17949.9" y1="4847.75" x2="18899.9" y2="4847.75" gradientUnits="userSpaceOnUse">
<stop stop-color="#FFE082"/>
<stop offset="1" stop-color="#FFA726"/>
</linearGradient>
<linearGradient id="paint5_linear" x1="51442" y1="17964.1" x2="58460.1" y2="24757.3" gradientUnits="userSpaceOnUse">
<stop stop-color="#42A5F5"/>
<stop offset="1" stop-color="#1565C0"/>
</linearGradient>
<linearGradient id="paint6_linear" x1="27559.3" y1="14589" x2="27082.7" y2="11592.3" gradientUnits="userSpaceOnUse">
<stop stop-color="#FFE082"/>
<stop offset="1" stop-color="#FFA726"/>
</linearGradient>
</defs>
</svg>
