<svg width="166" height="161" viewBox="0 0 166 161" fill="none" xmlns="http://www.w3.org/2000/svg">
<path d="M157.801 77.3173C157.811 88.0634 155.529 98.6929 151.102 108.525C146.675 118.356 140.2 127.173 132.093 134.41C129.838 136.425 127.467 138.312 124.992 140.062C121.816 142.308 118.472 144.317 114.989 146.072H114.953C114.21 146.454 113.456 146.817 112.695 147.169C112.348 147.336 112.008 147.491 111.655 147.646C109.452 148.636 107.193 149.524 104.876 150.311C103.051 150.907 101.177 151.504 99.2845 151.992C88.3688 154.837 76.9587 155.364 65.8185 153.537C64.4981 153.322 63.196 153.078 61.8999 152.797L60.8047 152.553C57.4985 151.796 54.2464 150.828 51.0691 149.655C49.2234 148.976 47.4142 148.23 45.6416 147.42C44.954 147.104 44.2664 146.782 43.591 146.448C43.1285 146.221 42.6722 145.989 42.2158 145.756C29.8352 139.385 19.405 129.905 11.9933 118.285C4.58166 106.666 0.454863 93.3249 0.0354945 79.6288C-0.383874 65.9327 2.91927 52.3734 9.60666 40.3395C16.2941 28.3056 26.1254 18.2294 38.094 11.1427C50.0626 4.05601 63.7384 0.213508 77.721 0.00864349C91.7036 -0.196221 105.491 3.24392 117.67 9.9768C129.85 16.7097 139.984 26.4933 147.036 38.326C154.087 50.1586 157.803 63.615 157.801 77.3173Z" fill="url(#paint0_linear)"/>
<path d="M99.1589 82.0994C104.336 87.2577 119.417 107.333 119.417 107.333L110.153 120.483L101.823 94.358L99.1589 82.0994Z" fill="url(#paint1_linear)"/>
<path d="M114.086 146.045C113.358 146.427 112.619 146.791 111.873 147.143C111.533 147.31 111.199 147.465 110.853 147.62C108.693 148.611 106.478 149.5 104.207 150.287C102.418 150.884 100.58 151.48 98.7249 151.969C88.0231 154.816 76.8365 155.343 65.9145 153.515C64.62 153.3 63.3434 153.055 62.0727 152.775C57.4196 155.984 53.1245 158.699 50.2789 159.934L50.5116 157.947L51.478 149.637L53.715 130.301L62.5798 121.729L42.649 123.274C42.649 123.274 44.7429 94.22 52.9157 88.2422C61.0884 82.2645 69.6609 76.9071 69.6609 76.9071C70.6836 77.5816 71.8102 78.0834 72.9956 78.3926C75.8303 79.1762 78.7767 79.4767 81.7112 79.2815C85.207 79.1205 88.7028 75.8691 88.8698 75.702C88.8698 75.702 94.3581 76.7938 99.0112 82.8252C101.332 85.9301 102.998 89.4738 103.909 93.2416C105.054 97.6504 107.089 107.947 109.403 120.386C110.918 128.392 112.511 137.27 114.086 146.045Z" fill="url(#paint2_linear)"/>
<path d="M119.701 107.093L128.215 116.847L158.159 87.789L159.294 81.8408L165.265 76.7682L162.608 84.5026V94.5777C162.608 94.5777 139.512 131.177 133.147 133.063C125.701 135.275 110.887 119.707 110.887 119.707L119.701 107.093Z" fill="url(#paint3_linear)"/>
<path d="M87.4305 120.791L94.8725 137.543L104.49 133.678L97.4384 117.285L87.4305 120.791Z" fill="#7E57C2"/>
<path d="M97.0469 131.965C95.9292 132.897 94.2617 132.679 92.1937 132.788C89.4153 132.862 86.7506 133.921 84.6629 135.779C81.8836 138.147 74.1137 144.341 66.3439 149.997C64.9333 151.02 63.5228 152.031 62.1601 153.024C57.4981 156.282 53.1948 159.037 50.3439 160.291C49.5943 160.668 48.785 160.907 47.9531 160.999C43.9606 161.102 43.1059 152.625 42.8609 145.861C42.7832 143.615 42.7652 141.562 42.7234 140.079C42.556 134.144 42.7234 123.124 42.7234 123.124L62.692 121.55L60.5762 135.561L60.2056 138.038V138.056L66.1825 135.816L66.3678 135.749L87.5855 127.762L89.0499 125.201L89.9823 127.623H90.0719L99.1567 126.412C99.1567 126.412 99.3121 130.081 97.0469 131.965Z" fill="url(#paint4_linear)"/>
<path d="M92.9505 44.3546C92.4384 42.9493 91.9969 41.9927 91.8674 41.7093V41.6384C91.8674 41.6384 91.4141 42.7603 88 42.4887C84.5858 42.2171 83.4556 40.5165 83.4556 40.5165C83.4556 40.5165 84.527 44.2011 80.4594 45.7776C76.545 47.301 75.0027 46.3149 74.8967 46.2441C75.1028 46.4685 78.1637 49.7515 76.1329 52.3554C74.0314 55.0539 69.3046 54.5224 69.3046 54.5224V54.5579C69.8995 55.9092 70.5656 57.2278 71.3001 58.5081C71.6886 59.1812 72.0713 59.8012 72.4774 60.3799V60.4212C73.5199 62.1223 74.9276 63.5687 76.5979 64.6549C75.8638 68.9759 73.7554 72.9427 70.5879 75.9624C71.6534 76.5201 72.7524 77.0111 73.8784 77.4326C76.074 78.2652 79.0232 79.0918 81.6544 78.8615C84.7032 78.5346 87.5204 77.0774 89.554 74.7755L88.206 69.5853L86.9934 64.9088C97.954 62.104 94.9401 49.905 92.9505 44.3546ZM86.3812 65.08L86.5754 65.0328L86.8874 64.9442C86.4334 65.1412 85.9538 65.2724 85.4629 65.3339C85.716 65.269 85.975 65.1981 86.2458 65.1154L86.3812 65.08Z" fill="url(#paint5_linear)"/>
<path d="M99.4077 41.9108C94.7029 46.081 92.6691 44.9056 92.5404 44.7933V44.7815C92.0075 43.3757 91.548 42.4188 91.4194 42.1353L91.3888 42.0644C91.3888 42.0644 90.9109 43.1867 87.3579 42.915C83.8048 42.6433 82.6347 40.9421 82.6347 40.9421C82.6347 40.9421 83.7497 44.6279 79.5166 46.205C75.4367 47.729 73.8317 46.7426 73.7276 46.6717C73.942 46.8902 77.1275 50.1744 75.014 52.7793C72.8271 55.4787 67.9079 54.9529 67.9079 54.9529V54.9825C68.5268 56.3363 69.22 57.6573 69.9846 58.94C70.393 59.6094 70.8014 60.2336 71.2098 60.8125V60.8538C71.2098 60.8538 69.5313 64.0375 66.5357 63.9726C63.5401 63.9076 63.4727 61.0192 63.4727 61.0192C63.4727 61.0192 61.3531 64.705 54.8045 61.155C48.2558 57.6051 52.6236 52.4603 52.6236 52.4603C52.6236 52.4603 47.9801 49.0344 47.9801 43.9014C47.9801 38.7684 55.2088 34.8641 55.2088 34.8641C55.2088 34.8641 52.6236 28.9042 56.9853 25.62C61.347 22.3359 67.9018 24.5627 67.9018 24.5627C67.9018 24.5627 67.7731 16.9371 74.4505 17.0611C81.1278 17.1852 82.6409 21.125 82.6409 21.125C82.6409 21.125 88.6443 16.6477 94.5865 20.8651C100.529 25.0825 98.0844 32.4364 98.0844 32.4364C98.0844 32.4364 104.315 37.5694 99.4077 41.9108Z" fill="url(#paint6_linear)"/>
<path opacity="0.15" d="M88.4967 70.3709C85.8105 69.3751 81.0331 65.5749 81.0331 65.5749C82.9185 65.8085 84.8235 65.6896 86.677 65.2226L86.8676 65.1684L87.2374 65.0397H87.2893L88.4967 70.3709Z" fill="black"/>
<path opacity="0.15" d="M65.1307 103.424L62.4488 121.019L60.3437 134.592L55.4437 138.609L66.106 134.791C66.106 134.791 63.3408 127.002 65.1307 103.424Z" fill="black"/>
<defs>
<linearGradient id="paint0_linear" x1="79.2244" y1="8.39497" x2="76.6336" y2="160.769" gradientUnits="userSpaceOnUse">
<stop stop-color="white" stop-opacity="0"/>
<stop offset="1" stop-color="#64B5F6" stop-opacity="0.6"/>
</linearGradient>
<linearGradient id="paint1_linear" x1="93.0225" y1="76.8864" x2="114.354" y2="115.603" gradientUnits="userSpaceOnUse">
<stop stop-color="#E57373"/>
<stop offset="1" stop-color="#AD1457"/>
</linearGradient>
<linearGradient id="paint2_linear" x1="32660.8" y1="46515.2" x2="30407.7" y2="57634.8" gradientUnits="userSpaceOnUse">
<stop stop-color="#E57373"/>
<stop offset="1" stop-color="#AD1457"/>
</linearGradient>
<linearGradient id="paint3_linear" x1="173.367" y1="91.2738" x2="116.181" y2="125.162" gradientUnits="userSpaceOnUse">
<stop stop-color="#FFF8E1"/>
<stop offset="1" stop-color="#FFCC80"/>
</linearGradient>
<linearGradient id="paint4_linear" x1="25163" y1="26441.2" x2="22012.7" y2="24344.5" gradientUnits="userSpaceOnUse">
<stop stop-color="#FFF8E1"/>
<stop offset="1" stop-color="#FFCC80"/>
</linearGradient>
<linearGradient id="paint5_linear" x1="98.7133" y1="50.3676" x2="67.5943" y2="63.1435" gradientUnits="userSpaceOnUse">
<stop stop-color="#FFF8E1"/>
<stop offset="1" stop-color="#FFCC80"/>
</linearGradient>
<linearGradient id="paint6_linear" x1="91.1131" y1="16.8367" x2="55.0061" y2="67.4344" gradientUnits="userSpaceOnUse">
<stop stop-color="#FFB74D"/>
<stop offset="1" stop-color="#F4511E"/>
</linearGradient>
</defs>
</svg>
