<svg width="261" height="157" viewBox="0 0 261 157" fill="none" xmlns="http://www.w3.org/2000/svg">
<ellipse opacity="0.2" cx="130.5" cy="148.552" rx="130.5" ry="8.44843" fill="#98C3E8"/>
<path d="M217.618 123.849C215.017 123.2 219.243 131.15 221.682 135.205C223.532 138.45 227.37 138.045 227.37 136.017C227.37 133.989 220.869 124.66 217.618 123.849Z" fill="url(#paint0_linear)"/>
<path d="M236.743 124.642C236.63 121.969 230.189 128.265 226.982 131.748C224.388 134.438 225.865 137.998 227.814 137.423C229.762 136.849 236.885 127.983 236.743 124.642Z" fill="url(#paint1_linear)"/>
<path d="M227.351 121.124C225.662 119.046 224.258 127.936 223.768 132.64C223.295 136.344 226.608 138.32 227.828 136.699C229.049 135.077 229.463 123.721 227.351 121.124Z" fill="url(#paint2_linear)"/>
<path d="M44.9079 146.417L46.1271 141.955H42.4697L36.7804 149.256L44.9079 146.417Z" fill="#6FCF97"/>
<path d="M20.5254 149.256L23.7764 146.417L20.9318 144.389L11.9916 149.256H20.5254Z" fill="#6FCF97"/>
<path d="M96.9241 57.1876L94.4859 62.8658L93.2668 64.4882L89.203 65.7049L88.7966 61.2435L91.6413 54.3485L96.9241 57.1876Z" fill="#F2994A"/>
<path d="M109.115 59.6211L110.335 61.2435L113.586 59.6211L111.96 56.782C110.741 54.7541 108.424 52.0361 107.084 50.6982C105.864 49.4815 106 50.2926 105.864 51.1038L108.303 54.3485C108.303 54.3485 107.304 55.2099 107.084 55.9709C106.816 56.8965 106.957 57.6013 107.49 58.4044C107.928 59.0645 109.115 59.6211 109.115 59.6211Z" fill="url(#paint3_linear)"/>
<path d="M92.0469 69.3552L94.0788 72.1943L97.7362 69.3552C96.6525 68.1384 94.4852 65.6238 94.4852 65.2993V62.8658C93.6724 63.1362 92.4982 64.0154 91.2342 63.677C89.9336 63.3287 89.3378 62.0546 88.7959 61.2435C88.7959 61.2435 87.9758 61.6453 87.5768 62.0546C86.2488 63.4169 86.6258 65.275 87.5768 66.9217C88.5699 68.6411 92.0469 69.3552 92.0469 69.3552Z" fill="url(#paint4_linear)"/>
<path d="M113.586 59.6212L128.625 74.163L120.494 76.2502L110.335 61.2435L113.586 59.6212Z" fill="url(#paint5_linear)"/>
<path d="M138.375 66.5161C137.075 63.5959 141.897 59.3507 144.471 57.5932L155.443 70.572L150.16 77.4669L146.096 86.3898L139.594 77.4669L142.032 72.1943C141.355 71.5183 139.675 69.4363 138.375 66.5161Z" fill="url(#paint6_linear)"/>
<path d="M23.7766 146.011L20.932 144.389L61.9759 104.236H94.0795L100.988 117.62L58.7249 125.326L23.7766 146.011Z" fill="url(#paint7_linear)"/>
<path opacity="0.2" d="M99.5109 117.533L58.6636 125.34L51.7109 129.243L63.8781 104.956L99.5109 117.533Z" fill="black"/>
<path d="M111.147 96.1239C108.546 97.7463 103.697 98.963 101.8 99.3686L109.928 110.725L134.717 103.83L144.876 79.9005L140.812 74.6278C139.051 74.3575 134.473 73.33 131.872 73.0055C128.621 72.5999 112.772 77.8725 109.928 77.8725C107.652 77.8725 100.852 72.1943 97.7364 69.3552L94.0791 72.1943C96.7882 75.8446 103.101 83.4696 106.677 84.7675C111.147 86.3898 123.338 83.1452 122.525 84.7675C121.713 86.3898 114.398 94.096 111.147 96.1239Z" fill="url(#paint8_linear)"/>
<path opacity="0.2" d="M127.322 86.3067C125.931 89.7763 115.734 94.4025 110.809 96.2819C116.024 92.8122 119.935 88.0415 122.542 85.0056C124.859 84.1382 128.712 82.8371 127.322 86.3067Z" fill="black"/>
<path d="M46.1274 141.955H42.47C46.2629 126.678 54.8238 96.1238 58.725 96.1238C62.6262 96.1238 89.0677 98.2869 101.801 99.3685L108.709 108.291L90.3854 116.666L65.227 111.13L46.1274 141.955Z" fill="url(#paint9_linear)"/>
<path d="M99.3629 146.822C75.7932 148.039 72.9486 143.172 70.9167 139.522C68.4785 132.221 70.9167 127.354 83.1079 120.053C95.2992 112.753 110.335 105.452 122.526 98.5574C134.718 91.6624 153.411 58.81 172.51 55.5653C191.61 52.3206 203.395 76.6557 207.865 102.208C212.335 127.76 198.518 142.361 193.642 142.361C188.765 142.361 122.933 145.605 99.3629 146.822Z" fill="url(#paint10_linear)"/>
<path d="M144.47 66.5161C141.869 65.5427 143.387 60.4323 144.47 57.9988C145.808 53.5374 154.629 45.8312 160.725 44.6145C166.821 43.3977 174.948 50.2927 174.948 54.7541C174.948 59.2156 174.948 61.6491 180.637 64.8938C186.327 68.1385 187.546 76.6558 181.45 80.306C175.354 83.9563 176.167 81.1172 167.227 84.3619C158.287 87.6066 153.41 102.613 149.753 96.1239C146.095 89.6345 152.191 90.0401 148.534 85.5787C144.876 81.1172 153.817 74.2222 153.41 70.9776C153.004 67.7329 147.721 67.7329 144.47 66.5161Z" fill="url(#paint11_linear)"/>
<rect x="28.9219" y="49.9866" width="31.6972" height="23.524" fill="#5A98D0"/>
<path d="M41.3507 61.1033C42.3664 63.0958 44.003 64.7221 45.9993 65.7429L47.5512 64.1941C47.7416 64.004 48.0238 63.9406 48.2707 64.0251C49.0607 64.2856 49.9143 64.4264 50.789 64.4264C51.177 64.4264 51.4944 64.7432 51.4944 65.1304V67.5875C51.4944 67.9747 51.177 68.2915 50.789 68.2915C44.1652 68.2915 38.7971 62.9338 38.7971 56.3229C38.7971 55.9357 39.1145 55.6189 39.5025 55.6189H41.9714C42.3594 55.6189 42.6768 55.9357 42.6768 56.3229C42.6768 57.203 42.8179 58.0478 43.0789 58.8363C43.1565 59.0828 43.1001 59.3573 42.9025 59.5545L41.3507 61.1033Z" fill="white"/>
<rect x="45.146" width="31.6972" height="23.524" fill="#5A98D0"/>
<path d="M67.0131 6.33636H55.7266C54.9507 6.33636 54.3229 6.97 54.3229 7.74444L54.3158 16.1929C54.3158 16.9673 54.9507 17.6009 55.7266 17.6009H67.0131C67.7891 17.6009 68.4239 16.9673 68.4239 16.1929V7.74444C68.4239 6.97 67.7891 6.33636 67.0131 6.33636ZM67.0131 9.15251L61.3699 12.6727L55.7266 9.15251V7.74444L61.3699 11.2646L67.0131 7.74444V9.15251Z" fill="white"/>
<rect x="107.927" width="31.6972" height="23.524" fill="#5A98D0"/>
<path d="M123.439 4.92828C119.545 4.92828 116.392 8.08237 116.392 11.9686C116.392 15.8549 119.545 19.009 123.439 19.009C127.34 19.009 130.5 15.8549 130.5 11.9686C130.5 8.08237 127.34 4.92828 123.439 4.92828ZM128.328 9.1525H126.247C126.021 8.27246 125.696 7.42761 125.273 6.64613C126.571 7.08967 127.65 7.99084 128.328 9.1525ZM123.446 6.36452C124.032 7.20936 124.49 8.14573 124.794 9.1525H122.099C122.402 8.14573 122.861 7.20936 123.446 6.36452ZM117.986 13.3767C117.874 12.9261 117.803 12.4544 117.803 11.9686C117.803 11.4829 117.874 11.0112 117.986 10.5606H120.371C120.314 11.0252 120.272 11.4899 120.272 11.9686C120.272 12.4474 120.314 12.9121 120.371 13.3767H117.986ZM118.565 14.7848H120.646C120.872 15.6648 121.196 16.5097 121.619 17.2912C120.321 16.8476 119.242 15.9535 118.565 14.7848ZM120.646 9.1525H118.565C119.242 7.9838 120.321 7.08967 121.619 6.64613C121.196 7.42761 120.872 8.27246 120.646 9.1525ZM123.446 17.5728C122.861 16.7279 122.402 15.7916 122.099 14.7848H124.794C124.49 15.7916 124.032 16.7279 123.446 17.5728ZM125.097 13.3767H121.796C121.732 12.9121 121.683 12.4474 121.683 11.9686C121.683 11.4899 121.732 11.0182 121.796 10.5606H125.097C125.16 11.0182 125.21 11.4899 125.21 11.9686C125.21 12.4474 125.16 12.9121 125.097 13.3767ZM125.273 17.2912C125.696 16.5097 126.021 15.6648 126.247 14.7848H128.328C127.65 15.9464 126.571 16.8476 125.273 17.2912ZM126.522 13.3767C126.578 12.9121 126.621 12.4474 126.621 11.9686C126.621 11.4899 126.578 11.0252 126.522 10.5606H128.906C129.019 11.0112 129.089 11.4829 129.089 11.9686C129.089 12.4544 129.019 12.9261 128.906 13.3767H126.522Z" fill="white"/>
<path d="M216.804 131.961C218.023 129.933 234.922 130.339 235.497 131.961C236.072 133.583 234.684 142.506 231.84 143.317C228.996 144.128 223.306 144.534 220.868 143.317C218.429 142.101 215.585 133.989 216.804 131.961Z" fill="#F2994A"/>
<defs>
<linearGradient id="paint0_linear" x1="222.086" y1="123.812" x2="222.086" y2="137.591" gradientUnits="userSpaceOnUse">
<stop stop-color="#6CEDA0"/>
<stop offset="1" stop-color="#199D56"/>
</linearGradient>
<linearGradient id="paint1_linear" x1="238.045" y1="128.908" x2="224.808" y2="132.825" gradientUnits="userSpaceOnUse">
<stop stop-color="#6CEDA0"/>
<stop offset="1" stop-color="#199D56"/>
</linearGradient>
<linearGradient id="paint2_linear" x1="230.946" y1="123.772" x2="222.676" y2="134.806" gradientUnits="userSpaceOnUse">
<stop stop-color="#6CEDA0"/>
<stop offset="1" stop-color="#199D56"/>
</linearGradient>
<linearGradient id="paint3_linear" x1="114.738" y1="52.9434" x2="105.45" y2="56.8986" gradientUnits="userSpaceOnUse">
<stop stop-color="#FFF8E1"/>
<stop offset="1" stop-color="#FFCC80"/>
</linearGradient>
<linearGradient id="paint4_linear" x1="99.3809" y1="64.0539" x2="88.0663" y2="71.0656" gradientUnits="userSpaceOnUse">
<stop stop-color="#FFF8E1"/>
<stop offset="1" stop-color="#FFCC80"/>
</linearGradient>
<linearGradient id="paint5_linear" x1="120.8" y1="58.5055" x2="119.809" y2="74.8665" gradientUnits="userSpaceOnUse">
<stop stop-color="#98D0FC"/>
<stop offset="1" stop-color="#3481D7"/>
</linearGradient>
<linearGradient id="paint6_linear" x1="142.531" y1="62.0194" x2="143.23" y2="73.1456" gradientUnits="userSpaceOnUse">
<stop stop-color="#FFF8E1"/>
<stop offset="1" stop-color="#FFCC80"/>
</linearGradient>
<linearGradient id="paint7_linear" x1="36.9363" y1="119.702" x2="67.7729" y2="131.886" gradientUnits="userSpaceOnUse">
<stop offset="0.0642604" stop-color="#EB5757"/>
<stop offset="1" stop-color="#872727"/>
</linearGradient>
<linearGradient id="paint8_linear" x1="105.16" y1="69.3923" x2="127.572" y2="95.7836" gradientUnits="userSpaceOnUse">
<stop stop-color="#98D0FC"/>
<stop offset="1" stop-color="#3481D7"/>
</linearGradient>
<linearGradient id="paint9_linear" x1="60.8364" y1="93.6795" x2="87.7203" y2="123.657" gradientUnits="userSpaceOnUse">
<stop stop-color="#EB5757"/>
<stop offset="1" stop-color="#872727"/>
</linearGradient>
<linearGradient id="paint10_linear" x1="208.582" y1="101.486" x2="144.591" y2="98.9782" gradientUnits="userSpaceOnUse">
<stop stop-color="#FCF898"/>
<stop offset="1" stop-color="#D7BD34"/>
</linearGradient>
<linearGradient id="paint11_linear" x1="164.265" y1="44.4728" x2="164.265" y2="97.7341" gradientUnits="userSpaceOnUse">
<stop stop-color="#AF6CED"/>
<stop offset="1" stop-color="#5E199D"/>
</linearGradient>
</defs>
</svg>
