<svg width="202" height="158" viewBox="0 0 202 158" fill="none" xmlns="http://www.w3.org/2000/svg">
<path d="M202 79.5001C201.992 93.9265 197.978 108.072 190.397 120.388C182.816 132.703 171.961 142.712 159.022 149.318C158.44 149.621 157.853 149.912 157.263 150.19L157.141 150.251L156.719 150.45C156.371 150.62 156.029 150.777 155.675 150.935C153.463 151.94 151.195 152.842 148.87 153.641C147.55 154.097 146.217 154.519 144.869 154.906L143.256 155.348C125.314 160.084 106.265 158.441 89.4176 150.705C88.7274 150.384 88.0371 150.057 87.3591 149.718L86.1374 149.112C74.0458 142.832 63.7886 133.573 56.3533 122.225C55.5714 121.043 54.8262 119.832 54.1177 118.593C53.4865 117.515 52.8756 116.423 52.2852 115.317C46.5464 104.236 43.5621 91.956 43.5808 79.5001C43.5808 78.0309 43.6215 76.5698 43.703 75.1168C44.8482 54.7042 53.9827 35.5397 69.1638 21.6993C84.3449 7.85894 104.375 0.434753 124.993 1.00575C145.612 1.57676 165.192 10.0979 179.57 24.7568C193.948 39.4158 201.988 59.0559 201.982 79.5001H202Z" fill="url(#paint0_linear)"/>
<path d="M107.236 76.7091C107.236 76.7091 89.5214 68.3844 87.9821 56.9297C86.4428 45.475 87.524 34.5288 96.3505 31.4653C96.3505 31.4653 101.934 13.8231 121.724 20.9127C141.515 28.0023 138.394 49.2892 149.212 51.838C160.03 54.3869 180.23 43.6526 184.084 56.7481C187.939 69.8435 175.264 69.0443 166.84 80.16C158.417 91.2757 171.428 97.1121 169.046 104.765C166.663 112.417 157.666 117.678 157.666 117.678L107.236 76.7091Z" fill="url(#paint1_linear)"/>
<path d="M82.9795 101.834L87.9822 115.317H88.5258L96.3506 80.1599C91.409 84.4524 82.9795 101.834 82.9795 101.834Z" fill="url(#paint2_linear)"/>
<path d="M74.1957 120.433L71.0255 122.013C67.0917 124.35 61.2155 123.684 61.2155 123.684C64.3918 127.226 82.277 131.234 87.3041 131.131L88.2326 118.586H77.091L74.1957 120.433Z" fill="url(#paint3_linear)"/>
<path d="M157.263 150.172L157.14 150.232L156.719 150.432C156.371 150.602 156.029 150.759 155.674 150.916C153.463 151.921 151.195 152.824 148.87 153.623C147.55 154.079 146.217 154.501 144.869 154.888L143.256 155.33C125.314 160.066 106.265 158.423 89.4176 150.686C88.7274 150.365 88.0371 150.039 87.3591 149.699L86.1375 149.094C86.3085 143.899 86.5711 137.682 86.956 131.125C87.2003 127.026 87.4996 122.794 87.8539 118.593C87.9455 117.497 88.0432 116.407 88.141 115.317C89.5825 99.8303 91.8915 85.4695 95.5931 80.9045L95.6481 80.844C96.1181 80.2029 96.7811 79.726 97.5417 79.4818C102.886 78.2225 106.655 77.7987 107.248 76.7089C107.84 75.6191 107.248 73.4759 107.248 73.4759L108.311 73.3306C109.856 73.1005 112.855 72.6162 115.696 71.8897C115.713 71.8953 115.733 71.8953 115.751 71.8897C118.261 71.2419 120.637 70.4064 121.798 69.4014L124.18 75.6797C124.18 75.6797 142.096 73.4335 149.09 80.1841C149.133 80.2155 149.172 80.2522 149.206 80.293C149.28 80.3591 149.349 80.4299 149.413 80.5049C149.829 80.9411 150.2 81.4177 150.519 81.9277C152.797 85.5603 154.41 100.139 155.528 115.953C155.784 119.585 156.017 123.339 156.218 127.014C156.682 135.502 157.031 143.724 157.263 150.172Z" fill="url(#paint4_linear)"/>
<path opacity="0.15" d="M157.141 150.251L156.719 150.45C156.371 150.62 156.029 150.777 155.675 150.935C153.463 151.94 151.195 152.842 148.87 153.641C147.55 154.097 146.217 154.519 144.869 154.906C136.617 146.194 133.343 134.885 133.343 134.885L156.206 127.014L157.141 150.251Z" fill="black"/>
<path d="M149.084 80.1599C157.36 88.2121 159.162 105.116 157.635 117.697C156.108 130.277 153.274 142.059 147.385 141.696C141.497 141.333 121.12 127.323 113.246 119.682L117.846 110.934L134.485 117.806V99.4913L149.084 80.1599Z" fill="url(#paint5_linear)"/>
<path d="M149.084 80.1599C157.36 88.2121 159.162 105.116 157.635 117.697C156.108 130.277 153.274 142.059 147.385 141.696C141.497 141.333 121.12 127.323 113.246 119.682L117.846 110.934L134.485 117.806V99.4913L149.084 80.1599Z" fill="url(#paint6_linear)"/>
<g filter="url(#filter0_d)">
<path d="M106.277 115.317H29.9287V118.593H106.277V115.317Z" fill="url(#paint7_linear)"/>
<path d="M73.0595 75.1167H15L29.9287 115.317H87.9822L73.0595 75.1167Z" fill="url(#paint8_linear)"/>
</g>
<path d="M47.3619 118.593C47.3619 118.593 57.3795 123.563 63.7444 123.684C70.1092 123.805 77.0972 118.593 77.0972 118.593H47.3619Z" fill="url(#paint9_linear)"/>
<path d="M117.846 110.934C117.846 110.934 109.038 106.526 105.244 106.042C101.451 105.558 89.6742 115.317 89.6742 115.317H106.289L113.265 119.682L117.846 110.934Z" fill="url(#paint10_linear)"/>
<path d="M121.053 59.4723C121.096 62.7875 121.341 66.0971 121.786 69.3832C117.846 71.5809 113.234 72.7615 108.298 73.3366L108.011 69.3832L107.84 66.9614V66.8827C106.889 66.8615 105.951 66.6559 105.079 66.2773C99.1177 63.7284 97.8349 51.2687 97.8349 51.2687C100.223 51.1718 103.332 46.9036 103.332 46.9036C105.073 49.5432 113.148 54.641 117.834 53.2727C122.519 51.9044 122.152 48.629 122.152 48.629C122.999 48.9832 123.732 49.5612 124.271 50.3C124.81 51.0388 125.133 51.91 125.206 52.8186C125.457 56.0153 121.053 59.4723 121.053 59.4723Z" fill="url(#paint11_linear)"/>
<path opacity="0.15" d="M117.052 62.99C115.946 64.8426 110.943 67.791 108.017 69.3954L107.846 66.9737C108.03 66.9737 108.207 66.9132 108.378 66.8768C110.767 66.4578 113.059 65.6149 115.146 64.3885C115.171 64.3788 115.194 64.3644 115.213 64.3462C115.84 63.9787 116.428 63.5487 116.966 63.0626L117.052 62.99Z" fill="black"/>
<path opacity="0.15" d="M127.619 114.978L140.581 120.233L134.473 115.868V99.5215C134.473 99.5215 132.561 113.725 127.619 114.978Z" fill="black"/>
<defs>
<filter id="filter0_d" x="0" y="60.1167" width="131.277" height="83.4759" filterUnits="userSpaceOnUse" color-interpolation-filters="sRGB">
<feFlood flood-opacity="0" result="BackgroundImageFix"/>
<feColorMatrix in="SourceAlpha" type="matrix" values="0 0 0 0 0 0 0 0 0 0 0 0 0 0 0 0 0 0 127 0"/>
<feOffset dx="5" dy="5"/>
<feGaussianBlur stdDeviation="10"/>
<feColorMatrix type="matrix" values="0 0 0 0 0 0 0 0 0 0 0 0 0 0 0 0 0 0 0.2 0"/>
<feBlend mode="normal" in2="BackgroundImageFix" result="effect1_dropShadow"/>
<feBlend mode="normal" in="SourceGraphic" in2="effect1_dropShadow" result="shape"/>
</filter>
<linearGradient id="paint0_linear" x1="123.115" y1="9.50161" x2="120.453" y2="164.262" gradientUnits="userSpaceOnUse">
<stop stop-color="white" stop-opacity="0"/>
<stop offset="1" stop-color="#64B5F6" stop-opacity="0.6"/>
</linearGradient>
<linearGradient id="paint1_linear" x1="87.4018" y1="68.451" x2="184.805" y2="68.451" gradientUnits="userSpaceOnUse">
<stop stop-color="#EF9A9A"/>
<stop offset="1" stop-color="#D81B60"/>
</linearGradient>
<linearGradient id="paint2_linear" x1="88.9412" y1="99.1341" x2="86.0545" y2="132.249" gradientUnits="userSpaceOnUse">
<stop stop-color="#7E57C2"/>
<stop offset="1" stop-color="#4527A0"/>
</linearGradient>
<linearGradient id="paint3_linear" x1="8163.91" y1="3028.86" x2="8135.71" y2="3719.18" gradientUnits="userSpaceOnUse">
<stop stop-color="#7E57C2"/>
<stop offset="1" stop-color="#4527A0"/>
</linearGradient>
<linearGradient id="paint4_linear" x1="24380.4" y1="17806.8" x2="29326.5" y2="26957.8" gradientUnits="userSpaceOnUse">
<stop stop-color="#7E57C2"/>
<stop offset="1" stop-color="#4527A0"/>
</linearGradient>
<linearGradient id="paint5_linear" x1="16731.6" y1="11709.5" x2="21122.5" y2="19087.5" gradientUnits="userSpaceOnUse">
<stop stop-color="#7E57C2"/>
<stop offset="1" stop-color="#4527A0"/>
</linearGradient>
<linearGradient id="paint6_linear" x1="139.377" y1="86.9892" x2="132.523" y2="143.394" gradientUnits="userSpaceOnUse">
<stop offset="0.14" stop-color="#7E57C2" stop-opacity="0"/>
<stop offset="0.26" stop-color="#724DBB" stop-opacity="0.21"/>
<stop offset="0.48" stop-color="#5F3DAF" stop-opacity="0.55"/>
<stop offset="0.66" stop-color="#5131A7" stop-opacity="0.79"/>
<stop offset="0.81" stop-color="#482AA2" stop-opacity="0.94"/>
<stop offset="0.91" stop-color="#4527A0"/>
</linearGradient>
<linearGradient id="paint7_linear" x1="29.9287" y1="116.952" x2="106.277" y2="116.952" gradientUnits="userSpaceOnUse">
<stop stop-color="#D2D4D5"/>
<stop offset="1" stop-color="#AAACAE"/>
</linearGradient>
<linearGradient id="paint8_linear" x1="641.917" y1="5031.84" x2="4961.13" y2="9986.41" gradientUnits="userSpaceOnUse">
<stop stop-color="#D2D4D5"/>
<stop offset="1" stop-color="#AAACAE"/>
</linearGradient>
<linearGradient id="paint9_linear" x1="49.2555" y1="113.126" x2="73.5965" y2="123.653" gradientUnits="userSpaceOnUse">
<stop stop-color="#FFF8E1"/>
<stop offset="1" stop-color="#FFCC80"/>
</linearGradient>
<linearGradient id="paint10_linear" x1="9437" y1="3525.38" x2="10058.1" y2="4206.53" gradientUnits="userSpaceOnUse">
<stop stop-color="#FFF8E1"/>
<stop offset="1" stop-color="#FFCC80"/>
</linearGradient>
<linearGradient id="paint11_linear" x1="9640.06" y1="3867.54" x2="10185.2" y2="4900.08" gradientUnits="userSpaceOnUse">
<stop stop-color="#FFF8E1"/>
<stop offset="1" stop-color="#FFCC80"/>
</linearGradient>
</defs>
</svg>
